<?xml version="1.0" standalone="no"?><!DOCTYPE svg PUBLIC "-//W3C//DTD SVG 1.1//EN" "http://www.w3.org/Graphics/SVG/1.1/DTD/svg11.dtd"><svg t="1749722791824" class="icon" viewBox="0 0 1024 1024" version="1.1" xmlns="http://www.w3.org/2000/svg" p-id="30383" xmlns:xlink="http://www.w3.org/1999/xlink" width="200" height="200"><path d="M511.397647 571.813647l-30.07749-77.101176-30.057412 77.101176h60.114824z m58.307765 141.914353l-34.996706-84.931765h-106.676706l-33.551059 84.931765h-66.821019l125.831529-309.007059h54.151529l128.883451 309.067294h-66.821019v-0.060235z" fill="#0693C2" p-id="30384"></path><path d="M634.478431 713.728h61.44v-309.007059H634.478431v309.007059z" fill="#0693C2" p-id="30385"></path><path d="M624.981333 143.721412a436.384627 436.384627 0 1 0 308.525177 534.427608l-93.685961-25.077961a339.425882 339.425882 0 1 1-239.99749-415.683765l25.098039-93.665882h0.060235z" fill="#0693C2" p-id="30386"></path><path d="M624.941176 143.721412l-3.152313-0.843294a436.384627 436.384627 0 1 0 311.717647 535.270902l-93.665883-25.077961a339.425882 339.425882 0 1 1-240.017568-415.683765l25.098039-93.665882z m2.208628 0.602353l2.268863-17.106824a453.471373 453.471373 0 1 0 320.592313 555.349334l4.417255-16.504471-126.694902-33.932549-4.417255 16.524549a322.319059 322.319059 0 1 1-227.910274-394.741961l16.504471 4.417255 29.535372-110.190431-14.295843-3.814902z" fill="#0693C2" p-id="30387"></path><path d="M827.171137 104.608627V31.844392h48.489412v72.724079h72.724078v48.489411h-72.724078v72.724079h-48.489412V153.077961h-72.724078V104.588549h72.724078z" fill="#0693C2" p-id="30388"></path><path d="M810.084392 14.777725h82.662902v72.724079h72.744157v82.662902h-72.744157v72.744157h-82.662902V170.164706h-72.724078V87.501804h72.724078V14.777725z m17.086745 89.810824h-72.724078v48.489412h72.724078v72.724078h48.489412V153.077961h72.724078V104.588549h-72.724078V31.864471h-48.489412v72.724078z" fill="#0693C2" p-id="30389"></path></svg>