<?xml version="1.0" standalone="no"?><!DOCTYPE svg PUBLIC "-//W3C//DTD SVG 1.1//EN" "http://www.w3.org/Graphics/SVG/1.1/DTD/svg11.dtd"><svg t="1749722698817" class="icon" viewBox="0 0 1024 1024" version="1.1" xmlns="http://www.w3.org/2000/svg" p-id="25433" xmlns:xlink="http://www.w3.org/1999/xlink" width="200" height="200"><path d="M512 512m-512 0a512 512 0 1 0 1024 0 512 512 0 1 0-1024 0Z" fill="#0780ED" p-id="25434"></path><path d="M494.933333 384h64v136.533333c0 12.8 8.533333 21.333333 21.333334 21.333334s21.333333-8.533333 21.333333-21.333334V384h64c4.266667 0 8.533333-4.266667 8.533333-4.266667 4.266667-4.266667 4.266667-8.533333 0-12.8l-85.333333-145.066666c0-4.266667-4.266667-4.266667-8.533333-4.266667s-8.533333 4.266667-8.533334 4.266667l-85.333333 145.066666c-4.266667 4.266667-4.266667 8.533333 0 12.8 0 4.266667 4.266667 4.266667 8.533333 4.266667z" fill="#FFFFFF" p-id="25435"></path><path d="M806.4 580.266667l-76.8-42.666667h-12.8c-4.266667 4.266667-4.266667 4.266667-4.266667 8.533333v25.6h-384c-34.133333 0-64-25.6-76.8-59.733333-8.533333-34.133333 4.266667-68.266667 38.4-89.6 34.133333-12.8 72.533333-8.533333 93.866667 17.066667 25.6 25.6 29.866667 64 8.533333 93.866666-4.266667 8.533333-4.266667 21.333333 8.533334 25.6 8.533333 4.266667 21.333333 4.266667 25.6-4.266666 29.866667-46.933333 21.333333-102.4-12.8-145.066667-38.4-34.133333-93.866667-42.666667-140.8-17.066667-46.933333 25.6-68.266667 81.066667-55.466667 132.266667 12.8 51.2 59.733333 89.6 110.933333 89.6h384v25.6c0 4.266667 4.266667 8.533333 4.266667 8.533333 4.266667 4.266667 8.533333 4.266667 12.8 0l76.8-42.666666c4.266667-4.266667 4.266667-4.266667 4.266667-8.533334 0-8.533333-4.266667-12.8-4.266667-17.066666z m-221.866667 76.8c-12.8 0-21.333333 8.533333-21.333333 21.333333v115.2c0 12.8 8.533333 21.333333 21.333333 21.333333 8.533333 0 21.333333-8.533333 21.333334-21.333333v-115.2c0-12.8-8.533333-21.333333-21.333334-21.333333z m-157.866666 0c-12.8 0-21.333333 8.533333-21.333334 21.333333v115.2c0 12.8 8.533333 21.333333 21.333334 21.333333 8.533333 0 21.333333-8.533333 21.333333-21.333333v-115.2c0-4.266667 0-8.533333-4.266667-12.8-8.533333-8.533333-12.8-8.533333-17.066666-8.533333z" fill="#FFFFFF" p-id="25436"></path></svg>