<?xml version="1.0" standalone="no"?><!DOCTYPE svg PUBLIC "-//W3C//DTD SVG 1.1//EN" "http://www.w3.org/Graphics/SVG/1.1/DTD/svg11.dtd"><svg t="1752735371028" class="icon" viewBox="0 0 1024 1024" version="1.1" xmlns="http://www.w3.org/2000/svg" p-id="2331" xmlns:xlink="http://www.w3.org/1999/xlink" width="200" height="200"><path d="M206.08 30.64888889c338.88 148.352 261.76 414.592 261.76 414.592L364.16 445.24088889l180.608 118.976 175.104-118.976L621.76 445.24088889c0 0 43.136-372.096-374.016-420.032C237.312 23.99288889 196.48 26.42488889 206.08 30.64888889zM781.44 601.59288889c-3.904-11.84-19.968-21.44-35.968-21.44L559.168 580.15288889 544.96 589.81688889 530.304 580.15288889 164.8 580.15288889c-15.936 0-25.792 9.6-22.016 21.44l96.96 297.92C243.584 911.35288889 259.648 920.88888889 275.648 920.88888889l580.736 0c16.064 0 25.856-9.536 22.016-21.376L781.44 601.59288889zM837.184 394.80888889l-152.128 0c-16.128-0.96-28.928 11.328-38.912 29.12l143.168 0L601.856 551.22488889l143.616 0c13.824 0.064 26.368 3.904 37.376 10.368 10.816 6.592 20.928 15.936 26.112 31.04l73.088 224.512 0-357.12C882.048 460.02488889 879.104 394.80888889 837.184 394.80888889zM243.392 518.26488889l0 32.896 242.88 0L392.32 489.33688889 272.384 489.33688889C256.32 489.33688889 243.392 502.32888889 243.392 518.26488889z" p-id="2332" fill="#707070"></path></svg>