<?xml version="1.0" standalone="no"?><!DOCTYPE svg PUBLIC "-//W3C//DTD SVG 1.1//EN" "http://www.w3.org/Graphics/SVG/1.1/DTD/svg11.dtd"><svg t="1752665424250" class="icon" viewBox="0 0 1024 1024" version="1.1" xmlns="http://www.w3.org/2000/svg" p-id="14634" xmlns:xlink="http://www.w3.org/1999/xlink" width="200" height="200"><path d="M512 64C262.4 64 64 262.4 64 512c6.4 19.2 12.8 32 32 32s32-12.8 38.4-32c0-211.2 172.8-377.6 377.6-377.6 211.2 0 377.6 172.8 377.6 377.6s-172.8 377.6-377.6 377.6c-38.4 0-76.8-6.4-115.2-19.2-25.6-6.4-44.8-19.2-70.4-32l44.8-268.8h230.4c19.2 0 38.4-19.2 38.4-38.4s-12.8-38.4-38.4-38.4H384l25.6-134.4h236.8c25.6 0 38.4-19.2 38.4-38.4 0-25.6-19.2-38.4-38.4-38.4H345.6l-108.8 595.2c38.4 32 89.6 51.2 134.4 64 44.8 12.8 89.6 19.2 134.4 19.2 249.6 0 448-198.4 448-448 6.4-249.6-192-448-441.6-448z" fill="#707070" p-id="14635"></path></svg>