<?xml version="1.0" standalone="no"?><!DOCTYPE svg PUBLIC "-//W3C//DTD SVG 1.1//EN" "http://www.w3.org/Graphics/SVG/1.1/DTD/svg11.dtd"><svg t="1752665591857" class="icon" viewBox="0 0 1024 1024" version="1.1" xmlns="http://www.w3.org/2000/svg" p-id="16480" xmlns:xlink="http://www.w3.org/1999/xlink" width="200" height="200"><path d="M417.184185 568.890889a37.925926 37.925926 0 0 1 37.925926 37.924926v341.332333a37.925926 37.925926 0 0 1-37.925926 37.925926H75.851852a37.925926 37.925926 0 0 1-37.925926-37.925926V606.815815a37.925926 37.925926 0 0 1 37.925926-37.925926h341.332333m0-37.925926H75.851852A75.851852 75.851852 0 0 0 0 606.815815v341.332333A75.851852 75.851852 0 0 0 75.851852 1024h341.332333a75.851852 75.851852 0 0 0 75.851852-75.851852V606.815815a75.851852 75.851852 0 0 0-75.851852-75.851852z m530.961963 37.925926a37.925926 37.925926 0 0 1 37.925926 37.925926v341.332333a37.925926 37.925926 0 0 1-37.925926 37.925926H606.813815a37.925926 37.925926 0 0 1-37.925926-37.925926V606.815815a37.925926 37.925926 0 0 1 37.925926-37.925926h341.332333m0-37.925926H606.813815a75.851852 75.851852 0 0 0-75.851852 75.851852v341.332333A75.851852 75.851852 0 0 0 606.813815 1024h341.332333A75.851852 75.851852 0 0 0 1023.998 948.148148V606.815815a75.851852 75.851852 0 0 0-75.851852-75.851852zM417.184185 37.927926a37.925926 37.925926 0 0 1 37.925926 37.925926v341.332333a37.925926 37.925926 0 0 1-37.925926 37.925926H75.851852a37.925926 37.925926 0 0 1-37.925926-37.925926V75.853852a37.925926 37.925926 0 0 1 37.925926-37.925926h341.332333m0-37.925926H75.851852A75.851852 75.851852 0 0 0 0 75.853852v341.332333a75.851852 75.851852 0 0 0 75.851852 75.851852h341.332333a75.851852 75.851852 0 0 0 75.851852-75.851852V75.853852A75.851852 75.851852 0 0 0 417.184185 0.002z" fill="#333333" p-id="16481"></path><path d="M777.479481 37.927926a20.859959 20.859959 0 0 1 14.790972 6.067988l187.353634 187.543634a21.048959 21.048959 0 0 1 0 29.771942L792.270453 448.855123a20.859959 20.859959 0 0 1-29.581943 0L575.334876 261.31149a21.048959 21.048959 0 0 1 0-29.771942L762.309511 44.185914a20.859959 20.859959 0 0 1 15.16997-6.257988m0-37.925926a58.595886 58.595886 0 0 0-41.717918 17.256966L548.02793 204.9916a58.974885 58.974885 0 0 0 0 83.246837l187.353634 187.543634a58.784885 58.784885 0 0 0 83.247837 0l187.353634-187.543634a58.974885 58.974885 0 0 0 0-83.246837L818.818401 17.447966A58.595886 58.595886 0 0 0 777.479481 0.002z" fill="#29d9f4" p-id="16482" class="selected"></path></svg>